<mxfile host="app.diagrams.net" modified="2024-06-26T12:52:55.577Z" agent="Mozilla/5.0 (Windows NT 10.0; Win64; x64) AppleWebKit/537.36 (KHTML, like Gecko) Chrome/126.0.0.0 Safari/537.36" etag="e21rE6EF4t_H8vArWd5C" version="24.6.2" type="device">
  <diagram name="Page-1" id="heb5QzgrZQrmwbmnNnSR">
    <mxGraphModel dx="2537" dy="868" grid="1" gridSize="10" guides="1" tooltips="1" connect="1" arrows="1" fold="1" page="1" pageScale="1" pageWidth="850" pageHeight="1100" math="0" shadow="0">
      <root>
        <mxCell id="0" />
        <mxCell id="1" parent="0" />
        <mxCell id="HnC7S9vMVBlh6ha1L1sf-1" value="" style="rounded=1;whiteSpace=wrap;html=1;arcSize=4;fillColor=#f5f5f5;fontColor=#333333;strokeColor=#666666;" vertex="1" parent="1">
          <mxGeometry x="-200" y="50" width="1040" height="710" as="geometry" />
        </mxCell>
        <mxCell id="HnC7S9vMVBlh6ha1L1sf-2" value="" style="rounded=0;whiteSpace=wrap;html=1;dashed=1;strokeWidth=3;strokeColor=#FF0000;fontStyle=1" vertex="1" parent="1">
          <mxGeometry x="-160" y="120" width="920" height="590" as="geometry" />
        </mxCell>
        <mxCell id="HnC7S9vMVBlh6ha1L1sf-13" value="" style="rounded=1;whiteSpace=wrap;html=1;dashed=1;strokeColor=#FF0000;fillColor=none;" vertex="1" parent="1">
          <mxGeometry x="-130" y="180" width="870" height="490" as="geometry" />
        </mxCell>
        <mxCell id="HnC7S9vMVBlh6ha1L1sf-4" value="Oracle Cloud Infrastructure Questback" style="text;html=1;align=center;verticalAlign=middle;whiteSpace=wrap;rounded=0;fontStyle=1" vertex="1" parent="1">
          <mxGeometry x="-156" y="70" width="180" height="30" as="geometry" />
        </mxCell>
        <mxCell id="HnC7S9vMVBlh6ha1L1sf-5" value="Virtual Cloud Network" style="text;html=1;align=center;verticalAlign=middle;whiteSpace=wrap;rounded=0;fontStyle=1;fontColor=#FF0000;fontSize=14;" vertex="1" parent="1">
          <mxGeometry x="349" y="125" width="150" height="30" as="geometry" />
        </mxCell>
        <mxCell id="HnC7S9vMVBlh6ha1L1sf-17" value="" style="rounded=1;whiteSpace=wrap;html=1;" vertex="1" parent="1">
          <mxGeometry x="150" y="285" width="310" height="140" as="geometry" />
        </mxCell>
        <mxCell id="HnC7S9vMVBlh6ha1L1sf-6" value="" style="image;aspect=fixed;html=1;points=[];align=center;fontSize=12;image=img/lib/azure2/networking/DNS_Private_Resolver.svg;" vertex="1" parent="1">
          <mxGeometry x="354" y="295" width="68" height="60" as="geometry" />
        </mxCell>
        <mxCell id="HnC7S9vMVBlh6ha1L1sf-7" value="" style="image;aspect=fixed;html=1;points=[];align=center;fontSize=12;image=img/lib/azure2/networking/DNS_Zones.svg;" vertex="1" parent="1">
          <mxGeometry x="201" y="295" width="64" height="64" as="geometry" />
        </mxCell>
        <mxCell id="HnC7S9vMVBlh6ha1L1sf-8" value="Private DNS Resolver Listener&lt;br&gt;10.93.0.3" style="text;html=1;align=center;verticalAlign=middle;whiteSpace=wrap;rounded=0;fontColor=#005073;fontStyle=1" vertex="1" parent="1">
          <mxGeometry x="335" y="373" width="106" height="30" as="geometry" />
        </mxCell>
        <mxCell id="HnC7S9vMVBlh6ha1L1sf-9" value="Private DNS Resolver Forwareder &lt;br&gt;10.93.0.2&lt;div&gt;&lt;br/&gt;&lt;/div&gt;" style="text;html=1;align=center;verticalAlign=middle;whiteSpace=wrap;rounded=0;fontColor=#005073;fontStyle=1" vertex="1" parent="1">
          <mxGeometry x="168" y="380" width="130" height="30" as="geometry" />
        </mxCell>
        <mxCell id="HnC7S9vMVBlh6ha1L1sf-11" value="" style="sketch=0;points=[[0.015,0.015,0],[0.985,0.015,0],[0.985,0.985,0],[0.015,0.985,0],[0.25,0,0],[0.5,0,0],[0.75,0,0],[1,0.25,0],[1,0.5,0],[1,0.75,0],[0.75,1,0],[0.5,1,0],[0.25,1,0],[0,0.75,0],[0,0.5,0],[0,0.25,0]];verticalLabelPosition=bottom;html=1;verticalAlign=top;aspect=fixed;align=center;pointerEvents=1;shape=mxgraph.cisco19.server;fillColor=#005073;strokeColor=none;" vertex="1" parent="1">
          <mxGeometry x="130" y="540" width="44" height="80" as="geometry" />
        </mxCell>
        <mxCell id="HnC7S9vMVBlh6ha1L1sf-14" value="MGMT_VCN_1&lt;br&gt;10.93.0.0/24" style="text;html=1;align=center;verticalAlign=middle;whiteSpace=wrap;rounded=0;fontStyle=0;fontColor=#FF0000;fontSize=14;" vertex="1" parent="1">
          <mxGeometry x="235" y="196" width="150" height="30" as="geometry" />
        </mxCell>
        <mxCell id="HnC7S9vMVBlh6ha1L1sf-15" value="" style="sketch=0;points=[[0.015,0.015,0],[0.985,0.015,0],[0.985,0.985,0],[0.015,0.985,0],[0.25,0,0],[0.5,0,0],[0.75,0,0],[1,0.25,0],[1,0.5,0],[1,0.75,0],[0.75,1,0],[0.5,1,0],[0.25,1,0],[0,0.75,0],[0,0.5,0],[0,0.25,0]];verticalLabelPosition=bottom;html=1;verticalAlign=top;aspect=fixed;align=center;pointerEvents=1;shape=mxgraph.cisco19.server;fillColor=#005073;strokeColor=none;" vertex="1" parent="1">
          <mxGeometry x="288" y="540" width="44" height="80" as="geometry" />
        </mxCell>
        <mxCell id="HnC7S9vMVBlh6ha1L1sf-16" value="" style="sketch=0;points=[[0.015,0.015,0],[0.985,0.015,0],[0.985,0.985,0],[0.015,0.985,0],[0.25,0,0],[0.5,0,0],[0.75,0,0],[1,0.25,0],[1,0.5,0],[1,0.75,0],[0.75,1,0],[0.5,1,0],[0.25,1,0],[0,0.75,0],[0,0.5,0],[0,0.25,0]];verticalLabelPosition=bottom;html=1;verticalAlign=top;aspect=fixed;align=center;pointerEvents=1;shape=mxgraph.cisco19.server;fillColor=#005073;strokeColor=none;" vertex="1" parent="1">
          <mxGeometry x="438" y="540" width="44" height="80" as="geometry" />
        </mxCell>
        <mxCell id="HnC7S9vMVBlh6ha1L1sf-18" value="" style="rounded=1;whiteSpace=wrap;html=1;dashed=1;dashPattern=8 8;" vertex="1" parent="1">
          <mxGeometry x="502" y="258" width="190" height="214" as="geometry" />
        </mxCell>
        <mxCell id="HnC7S9vMVBlh6ha1L1sf-19" value="&lt;b&gt;&lt;font style=&quot;font-size: 14px;&quot;&gt;Private views:&lt;/font&gt;&lt;/b&gt;&lt;div&gt;- MGMT_DNS_Private_View (att)&lt;/div&gt;&lt;div style=&quot;font-size: 11px;&quot;&gt;&amp;nbsp; &lt;font style=&quot;font-size: 11px;&quot;&gt;a) Zones&lt;/font&gt;:&amp;nbsp;&lt;br&gt;&amp;nbsp; &amp;nbsp; &amp;nbsp; mgmt.int.questback.com&lt;br&gt;&lt;font style=&quot;font-size: 9px;&quot;&gt;&amp;nbsp; &amp;nbsp; &amp;nbsp; &amp;nbsp;1) &lt;/font&gt;&lt;font style=&quot;font-size: 9px;&quot;&gt;argocd.mgmt.int.questback.com&lt;br&gt;&amp;nbsp; &amp;nbsp; &amp;nbsp; &amp;nbsp;2) k6.mgmt.int.questback.com&lt;br&gt;&amp;nbsp; &amp;nbsp; &amp;nbsp; &amp;nbsp; &amp;nbsp;....&lt;/font&gt;&lt;/div&gt;&lt;div style=&quot;font-size: 11px;&quot;&gt;&lt;span style=&quot;font-size: 11px;&quot;&gt;- QBA_MGMT_VCN_1 (default)&lt;/span&gt;&lt;br&gt;&lt;span style=&quot;font-size: 11px;&quot;&gt;&amp;nbsp; &amp;nbsp;&lt;/span&gt;&lt;span style=&quot;background-color: initial;&quot;&gt;&lt;font style=&quot;font-size: 11px;&quot;&gt;a) Zones:&lt;/font&gt;&lt;/span&gt;&lt;span style=&quot;background-color: initial;&quot;&gt;&amp;nbsp; okenode&lt;/span&gt;&lt;font style=&quot;background-color: initial; font-size: 11px;&quot;&gt;.mgmt.oraclevcn.com&lt;/font&gt;&lt;/div&gt;&lt;font style=&quot;font-size: 9px;&quot;&gt;&amp;nbsp; &amp;nbsp; &amp;nbsp; &amp;nbsp;1)&amp;nbsp;oke-...okenode.mgmt.oraclevcn.com&lt;/font&gt;&lt;font style=&quot;font-size: 9px;&quot;&gt;&lt;br&gt;&amp;nbsp; &amp;nbsp; &amp;nbsp; &amp;nbsp;2)&amp;nbsp;&amp;nbsp;oke-...okenode.mgmt.oraclevcn.co&lt;br&gt;&amp;nbsp; &amp;nbsp; &amp;nbsp; &amp;nbsp; &amp;nbsp;....&lt;/font&gt;" style="text;html=1;align=left;verticalAlign=middle;whiteSpace=wrap;rounded=0;" vertex="1" parent="1">
          <mxGeometry x="510" y="263" width="180" height="196" as="geometry" />
        </mxCell>
        <mxCell id="HnC7S9vMVBlh6ha1L1sf-22" value="" style="group" vertex="1" connectable="0" parent="1">
          <mxGeometry x="-90" y="270" width="200" height="190" as="geometry" />
        </mxCell>
        <mxCell id="HnC7S9vMVBlh6ha1L1sf-20" value="" style="rounded=1;whiteSpace=wrap;html=1;dashed=1;dashPattern=8 8;" vertex="1" parent="HnC7S9vMVBlh6ha1L1sf-22">
          <mxGeometry width="200" height="190" as="geometry" />
        </mxCell>
        <mxCell id="HnC7S9vMVBlh6ha1L1sf-21" value="&lt;b&gt;&lt;font style=&quot;font-size: 14px;&quot;&gt;Forwared rules:&lt;br&gt;&lt;/font&gt;&lt;/b&gt;&lt;br style=&quot;text-align: center;&quot;&gt;&lt;span style=&quot;text-align: center;&quot;&gt;- dev.int.questback.com &lt;br&gt;&amp;nbsp; 10.93.2.3&lt;/span&gt;&lt;br style=&quot;text-align: center;&quot;&gt;&lt;span style=&quot;text-align: center;&quot;&gt;- dev.ext.questback.com&lt;br&gt;&amp;nbsp; 10.93.2.3&lt;/span&gt;&lt;br style=&quot;text-align: center;&quot;&gt;&lt;span style=&quot;text-align: center;&quot;&gt;- prod.int.questback.com&amp;nbsp;&lt;br&gt;&amp;nbsp; 10.93.3.3&lt;/span&gt;&lt;br style=&quot;text-align: center;&quot;&gt;&lt;span style=&quot;text-align: center;&quot;&gt;- prod.ext.questback.com &lt;br&gt;&amp;nbsp; 10.93.3.3&lt;/span&gt;&lt;b&gt;&lt;font style=&quot;font-size: 14px;&quot;&gt;&lt;br&gt;&lt;/font&gt;&lt;/b&gt;" style="text;html=1;align=left;verticalAlign=middle;whiteSpace=wrap;rounded=0;" vertex="1" parent="HnC7S9vMVBlh6ha1L1sf-22">
          <mxGeometry x="22" y="3" width="178" height="173" as="geometry" />
        </mxCell>
        <mxCell id="HnC7S9vMVBlh6ha1L1sf-25" value="" style="endArrow=classic;html=1;rounded=0;entryX=0.25;entryY=1;entryDx=0;entryDy=0;" edge="1" parent="1" target="HnC7S9vMVBlh6ha1L1sf-17">
          <mxGeometry width="50" height="50" relative="1" as="geometry">
            <mxPoint x="150" y="540" as="sourcePoint" />
            <mxPoint x="200" y="490" as="targetPoint" />
          </mxGeometry>
        </mxCell>
        <mxCell id="HnC7S9vMVBlh6ha1L1sf-26" value="DNS Request" style="edgeLabel;html=1;align=center;verticalAlign=middle;resizable=0;points=[];" vertex="1" connectable="0" parent="HnC7S9vMVBlh6ha1L1sf-25">
          <mxGeometry x="-0.0911" y="-3" relative="1" as="geometry">
            <mxPoint as="offset" />
          </mxGeometry>
        </mxCell>
        <mxCell id="HnC7S9vMVBlh6ha1L1sf-27" value="" style="endArrow=classic;html=1;rounded=0;entryX=0.232;entryY=1.043;entryDx=0;entryDy=0;entryPerimeter=0;exitX=0.503;exitY=0.018;exitDx=0;exitDy=0;exitPerimeter=0;" edge="1" parent="1" source="HnC7S9vMVBlh6ha1L1sf-15">
          <mxGeometry width="50" height="50" relative="1" as="geometry">
            <mxPoint x="226" y="534" as="sourcePoint" />
            <mxPoint x="298" y="425" as="targetPoint" />
          </mxGeometry>
        </mxCell>
        <mxCell id="HnC7S9vMVBlh6ha1L1sf-28" value="DNS Request" style="edgeLabel;html=1;align=center;verticalAlign=middle;resizable=0;points=[];" vertex="1" connectable="0" parent="HnC7S9vMVBlh6ha1L1sf-27">
          <mxGeometry x="-0.0911" y="-3" relative="1" as="geometry">
            <mxPoint as="offset" />
          </mxGeometry>
        </mxCell>
        <mxCell id="HnC7S9vMVBlh6ha1L1sf-29" value="" style="endArrow=classic;html=1;rounded=0;entryX=0.75;entryY=1;entryDx=0;entryDy=0;exitX=0.508;exitY=0.028;exitDx=0;exitDy=0;exitPerimeter=0;" edge="1" parent="1" source="HnC7S9vMVBlh6ha1L1sf-16" target="HnC7S9vMVBlh6ha1L1sf-17">
          <mxGeometry width="50" height="50" relative="1" as="geometry">
            <mxPoint x="460" y="540" as="sourcePoint" />
            <mxPoint x="448" y="425" as="targetPoint" />
          </mxGeometry>
        </mxCell>
        <mxCell id="HnC7S9vMVBlh6ha1L1sf-30" value="DNS Request" style="edgeLabel;html=1;align=center;verticalAlign=middle;resizable=0;points=[];" vertex="1" connectable="0" parent="HnC7S9vMVBlh6ha1L1sf-29">
          <mxGeometry x="-0.0911" y="-3" relative="1" as="geometry">
            <mxPoint as="offset" />
          </mxGeometry>
        </mxCell>
        <mxCell id="HnC7S9vMVBlh6ha1L1sf-32" value="" style="endArrow=classic;html=1;rounded=0;entryX=0.011;entryY=0.456;entryDx=0;entryDy=0;entryPerimeter=0;" edge="1" parent="1" target="HnC7S9vMVBlh6ha1L1sf-18">
          <mxGeometry width="50" height="50" relative="1" as="geometry">
            <mxPoint x="460" y="358" as="sourcePoint" />
            <mxPoint x="504.2399999999998" y="347.048" as="targetPoint" />
          </mxGeometry>
        </mxCell>
        <mxCell id="HnC7S9vMVBlh6ha1L1sf-33" value="" style="endArrow=classic;html=1;rounded=0;entryX=1;entryY=0.5;entryDx=0;entryDy=0;" edge="1" parent="1" target="HnC7S9vMVBlh6ha1L1sf-21">
          <mxGeometry width="50" height="50" relative="1" as="geometry">
            <mxPoint x="150" y="360" as="sourcePoint" />
            <mxPoint x="200" y="310" as="targetPoint" />
          </mxGeometry>
        </mxCell>
      </root>
    </mxGraphModel>
  </diagram>
</mxfile>
